<?xml version="1.0" encoding="UTF-8" standalone="no"?>
<!-- Created with Inkscape (http://www.inkscape.org/) -->

<svg
   xmlns:dc="http://purl.org/dc/elements/1.1/"
   xmlns:cc="http://creativecommons.org/ns#"
   xmlns:rdf="http://www.w3.org/1999/02/22-rdf-syntax-ns#"
   xmlns:svg="http://www.w3.org/2000/svg"
   xmlns="http://www.w3.org/2000/svg"
   xmlns:xlink="http://www.w3.org/1999/xlink"
   xmlns:sodipodi="http://sodipodi.sourceforge.net/DTD/sodipodi-0.dtd"
   xmlns:inkscape="http://www.inkscape.org/namespaces/inkscape"
   width="29"
   height="75"
   id="svg2989"
   version="1.1"
   inkscape:version="0.48.2 r9819"
   sodipodi:docname="bat.svg"
   inkscape:export-filename="/home/marcio/Projects/Tong/svg/bat.png"
   inkscape:export-xdpi="90"
   inkscape:export-ydpi="90">
  <defs
     id="defs2991">
    <radialGradient
       inkscape:collect="always"
       xlink:href="#linearGradient3765"
       id="radialGradient3771"
       cx="58.32436"
       cy="972.28839"
       fx="58.32436"
       fy="972.28839"
       r="12"
       gradientUnits="userSpaceOnUse"
       gradientTransform="matrix(1.1291583,1.2542286,-1.2092784,1.0887112,1168.2184,-163.0313)" />
    <linearGradient
       inkscape:collect="always"
       id="linearGradient3765">
      <stop
         style="stop-color:#2e3436;stop-opacity:1;"
         offset="0"
         id="stop3767" />
      <stop
         id="stop3773"
         offset="0.68386716"
         style="stop-color:#2e3436;stop-opacity:1" />
      <stop
         style="stop-color:#eeeeec;stop-opacity:1"
         offset="1"
         id="stop3769" />
    </linearGradient>
    <radialGradient
       r="12"
       fy="972.28839"
       fx="58.32436"
       cy="972.28839"
       cx="58.32436"
       gradientTransform="matrix(1.1291583,1.2542286,-1.2092784,1.0887112,1168.2184,-163.0313)"
       gradientUnits="userSpaceOnUse"
       id="radialGradient3014"
       xlink:href="#linearGradient3765"
       inkscape:collect="always" />
  </defs>
  <sodipodi:namedview
     id="base"
     pagecolor="#ffffff"
     bordercolor="#666666"
     borderopacity="1.0"
     inkscape:pageopacity="0.0"
     inkscape:pageshadow="2"
     inkscape:zoom="1"
     inkscape:cx="208.55947"
     inkscape:cy="87.289446"
     inkscape:document-units="px"
     inkscape:current-layer="layer1"
     showgrid="false"
     inkscape:window-width="1366"
     inkscape:window-height="685"
     inkscape:window-x="0"
     inkscape:window-y="30"
     inkscape:window-maximized="1"
     fit-margin-top="0"
     fit-margin-left="0"
     fit-margin-right="0"
     fit-margin-bottom="0" />
  <metadata
     id="metadata2994">
    <rdf:RDF>
      <cc:Work
         rdf:about="">
        <dc:format>image/svg+xml</dc:format>
        <dc:type
           rdf:resource="http://purl.org/dc/dcmitype/StillImage" />
        <dc:title></dc:title>
      </cc:Work>
    </rdf:RDF>
  </metadata>
  <g
     inkscape:label="Camada 1"
     inkscape:groupmode="layer"
     id="layer1"
     transform="translate(-6.625,-972)">
    <path
       id="path3845"
       style="fill:none;stroke:#000000;stroke-width:3;stroke-miterlimit:4;stroke-opacity:1;stroke-dasharray:none"
       d="m 9.9583698,976.30672 c 7.2462952,-0.9507 14.9385662,-1.45542 22.6464462,-1.94454 1.821146,22.66667 1.949193,45.33332 0,68.00002 -5.812642,0.2131 -11.473791,0.3909 -19.110912,1.0607 0.480613,-22.7256 -0.925299,-44.39058 -3.5355342,-67.11618 z m -1.767767,1.94454 c 0.4179483,-0.48003 0.9617893,-2.20918 1.2877344,-2.24996 5.6468948,0.91038 13.9956818,0.77266 21.3587118,0.30542 1.796667,22.36199 0.566104,47.77858 2.198796,66.46728 -0.290615,0.4372 -1.819042,1.228 -2.198796,1.5327 -5.812642,0.2131 -11.473791,0.3909 -19.110912,1.0607 0.480613,-22.7256 -0.925299,-44.3905 -3.5355342,-67.11614 z"
       inkscape:connector-curvature="0" />
    <path
       sodipodi:nodetypes="ccccccc"
       inkscape:connector-curvature="0"
       id="path3065"
       d="m 8.1906028,978.25126 c 0.4179483,-0.48003 0.9617893,-2.20918 1.2877344,-2.24996 5.6468948,0.91038 13.9956818,0.77266 21.3587118,0.30542 1.796667,22.36199 0.566104,47.77858 2.198796,66.46728 -0.290615,0.4372 -1.819042,1.228 -2.198796,1.5327 -5.812642,0.2131 -11.473791,0.3909 -19.110912,1.0607 0.480613,-22.7256 -0.925299,-44.3905 -3.5355342,-67.11614 z"
       style="fill:#875023;fill-opacity:1;stroke:none" />
    <path
       style="fill:#fcaf3e;fill-opacity:1;stroke:#875023;stroke-opacity:1"
       d="m 9.9583698,976.30672 c 7.2462952,-0.9507 14.9385662,-1.45542 22.6464462,-1.94454 1.821146,22.66667 1.949193,45.33332 0,68.00002 -5.812642,0.2131 -11.473791,0.3909 -19.110912,1.0607 0.480613,-22.7256 -0.925299,-44.39058 -3.5355342,-67.11618 z"
       id="rect3016"
       inkscape:connector-curvature="0"
       sodipodi:nodetypes="ccccc" />
    <path
       style="fill:#875023;fill-opacity:1;stroke:none"
       d="m 25.5,974.98718 c 1.488566,4.375 1.691398,8.75 2.25,13.125 0.22794,-4.45833 0.606241,-8.91667 -0.125,-13.375"
       id="path3835"
       inkscape:connector-curvature="0"
       sodipodi:nodetypes="ccc" />
    <path
       sodipodi:nodetypes="ccc"
       inkscape:connector-curvature="0"
       id="path3837"
       d="m 21.75,975.03274 c 1.634324,2.98481 1.857017,5.96963 2.470317,8.95444 0.250259,-3.04166 0.665603,-6.08334 -0.13724,-9.125"
       style="fill:#875023;fill-opacity:1;stroke:none" />
    <path
       style="fill:none;stroke:#875023;stroke-width:1px;stroke-linecap:butt;stroke-linejoin:miter;stroke-opacity:1"
       d="m 20.393403,1043.8968 c 0,0 -1.505856,-6.7324 -1.909108,-12.8322 -0.403252,-6.0999 0.381821,-23.7328 0.381821,-23.7328"
       id="path3839"
       inkscape:connector-curvature="0"
       sodipodi:nodetypes="czc" />
    <path
       style="fill:none;stroke:#875023;stroke-width:1px;stroke-linecap:butt;stroke-linejoin:miter;stroke-opacity:1"
       d="m 18.54988,975.71745 c 0,0 5.167281,18.95256 5.727325,27.15295 0.560044,8.2004 -1.527287,21.4366 -1.527287,21.4366"
       id="path3841"
       inkscape:connector-curvature="0"
       sodipodi:nodetypes="czc" />
  </g>
</svg>
